<svg xmlns="http://www.w3.org/2000/svg" style="display:none" fill="none">

    <symbol id="icon-phone" width="28" height="28" viewBox="0 0 28 28">
        <path
            d="M25.8798 25.8544L26.9432 24.6308C27.62 23.9531 28 23.0351 28 22.0782C28 21.1212 27.62 20.2032 26.9432 19.5255C26.9069 19.4893 24.0956 17.3303 24.0956 17.3303C23.4208 16.6891 22.5246 16.3321 21.593 16.3334C20.6614 16.3347 19.7662 16.6942 19.0933 17.3373L16.8661 19.2105C15.0482 18.4595 13.3967 17.3573 12.0067 15.9673C10.6167 14.5774 9.51541 12.927 8.76616 11.111L10.6357 8.89478C11.2804 8.22313 11.641 7.32931 11.6425 6.39913C11.644 5.46894 11.2864 4.57395 10.6439 3.9002C10.6439 3.9002 8.47871 1.09731 8.44249 1.06115C7.77581 0.391341 6.8719 0.0102431 5.92607 0.000203479C4.98023 -0.0098361 4.06841 0.351988 3.38761 1.0075L2.04385 2.17391C-5.89486 11.3676 11.2001 28.3004 20.714 27.9959C21.6747 28.0015 22.6268 27.8149 23.514 27.4471C24.4013 27.0792 25.2057 26.5377 25.8798 25.8544Z"
            fill="white" />
    </symbol>

    <symbol id="icon-mail" width="28" height="26" viewBox="0 0 28 26">
        <path
            d="M27.9463 5L18.1253 15.1259C17.0303 16.2521 15.5467 16.8846 14 16.8846C12.4533 16.8846 10.9697 16.2521 9.87467 15.1259L0.0536667 5C0.0373333 5.19006 0 5.36207 0 5.55092V19.9856C0.0018525 21.5801 0.617029 23.1088 1.71059 24.2363C2.80415 25.3638 4.28681 25.9981 5.83333 26H22.1667C23.7132 25.9981 25.1959 25.3638 26.2894 24.2363C27.383 23.1088 27.9981 21.5801 28 19.9856V5.55092C28 5.36207 27.9627 5.19006 27.9463 5Z"
            fill="white" />
        <path
            d="M16.4508 13.9417L27 2.91126C26.489 2.02534 25.7682 1.29206 24.9072 0.782127C24.0462 0.272196 23.0741 0.00282633 22.0846 0H5.91542C4.92589 0.00282633 3.95376 0.272196 3.09278 0.782127C2.2318 1.29206 1.51104 2.02534 1 2.91126L11.5492 13.9417C12.2001 14.6195 13.0813 15 14 15C14.9187 15 15.7999 14.6195 16.4508 13.9417Z"
            fill="white" />
    </symbol>

    <symbol id="icon-location" width="27" height="32" viewBox="0 0 27 32">
        <path
            d="M13.4995 0.554688C10.0817 0.558448 6.80494 1.91775 4.38805 4.3344C1.97116 6.75105 0.611524 10.0277 0.607422 13.4455C0.607422 16.7651 3.17784 21.9602 8.24763 28.8861C8.85117 29.7129 9.64141 30.3856 10.554 30.8493C11.4667 31.313 12.4759 31.5547 13.4995 31.5547C14.5232 31.5547 15.5324 31.313 16.4451 30.8493C17.3577 30.3856 18.1479 29.7129 18.7515 28.8861C23.8213 21.9602 26.3917 16.7651 26.3917 13.4455C26.3876 10.0277 25.0279 6.75105 22.611 4.3344C20.1942 1.91775 16.9174 0.558448 13.4995 0.554688ZM13.4995 18.5838C12.4777 18.5838 11.4788 18.2808 10.6291 17.713C9.77945 17.1453 9.11722 16.3384 8.72617 15.3943C8.33512 14.4502 8.2328 13.4114 8.43216 12.4091C8.63151 11.4069 9.12359 10.4863 9.84616 9.76372C10.5687 9.04115 11.4893 8.54907 12.4916 8.34972C13.4938 8.15036 14.5327 8.25268 15.4767 8.64373C16.4208 9.03478 17.2278 9.69701 17.7955 10.5467C18.3632 11.3963 18.6662 12.3952 18.6662 13.4171C18.6662 14.7874 18.1219 16.1016 17.1529 17.0705C16.184 18.0394 14.8698 18.5838 13.4995 18.5838Z"
            fill="white" />
    </symbol>

    <symbol id="icon-time" width="28" height="28" viewBox="0 0 28 28">
        <path
            d="M14 0C6.28017 0 0 6.28017 0 14C0 21.7198 6.28017 28 14 28C21.7198 28 28 21.7198 28 14C28 6.28017 21.7198 0 14 0ZM15.1667 14C15.1669 14.2048 15.1129 14.4061 15.0103 14.5833L12.677 18.6247C12.601 18.7584 12.4992 18.8758 12.3776 18.9701C12.256 19.0643 12.117 19.1336 11.9685 19.1739C11.82 19.2143 11.665 19.2248 11.5124 19.205C11.3598 19.1851 11.2127 19.1353 11.0795 19.0584C10.9462 18.9815 10.8295 18.8789 10.736 18.7567C10.6426 18.6345 10.5742 18.495 10.5349 18.3462C10.4956 18.1975 10.486 18.0424 10.5069 17.89C10.5277 17.7375 10.5785 17.5907 10.6563 17.458L12.8333 13.6873V7C12.8333 6.69058 12.9562 6.39383 13.175 6.17504C13.3938 5.95625 13.6906 5.83333 14 5.83333C14.3094 5.83333 14.6062 5.95625 14.825 6.17504C15.0437 6.39383 15.1667 6.69058 15.1667 7V14Z"
            fill="white" />
    </symbol>

    <symbol id="icon-burger" width="32" height="24" viewBox="0 0 32 24">
        <path
            d="M2.4 4.8H29.6C30.2365 4.8 30.847 4.54714 31.2971 4.09706C31.7471 3.64697 32 3.03652 32 2.4C32 1.76348 31.7471 1.15303 31.2971 0.702943C30.847 0.252856 30.2365 0 29.6 0H2.4C1.76348 0 1.15303 0.252856 0.702944 0.702943C0.252856 1.15303 0 1.76348 0 2.4C0 3.03652 0.252856 3.64697 0.702944 4.09706C1.15303 4.54714 1.76348 4.8 2.4 4.8ZM29.6 9.6H2.4C1.76348 9.6 1.15303 9.85286 0.702944 10.3029C0.252856 10.753 0 11.3635 0 12C0 12.6365 0.252856 13.247 0.702944 13.6971C1.15303 14.1471 1.76348 14.4 2.4 14.4H29.6C30.2365 14.4 30.847 14.1471 31.2971 13.6971C31.7471 13.247 32 12.6365 32 12C32 11.3635 31.7471 10.753 31.2971 10.3029C30.847 9.85286 30.2365 9.6 29.6 9.6ZM29.6 19.2H2.4C1.76348 19.2 1.15303 19.4529 0.702944 19.9029C0.252856 20.353 0 20.9635 0 21.6C0 22.2365 0.252856 22.847 0.702944 23.2971C1.15303 23.7471 1.76348 24 2.4 24H29.6C30.2365 24 30.847 23.7471 31.2971 23.2971C31.7471 22.847 32 22.2365 32 21.6C32 20.9635 31.7471 20.353 31.2971 19.9029C30.847 19.4529 30.2365 19.2 29.6 19.2Z"
            fill="white" />
    </symbol>

    <symbol id="icon-arrow" width="33" height="58" viewBox="0 0 33 58">
        <path d="M1 1.06641L30.9323 26.274L1.12519 56.1109" stroke="white" stroke-width="2"
            stroke-linecap="round" />
    </symbol>

    <symbol id="icon-pdf" width="29" height="33" viewBox="0 0 29 33">
        <path
            d="M8.9725 22.1513C8.9725 22.7975 8.40875 23.3337 7.74875 23.3337H6.6075V20.9688H7.7625C8.4225 20.9688 8.98625 21.505 8.98625 22.1513H8.9725ZM18.625 11H27.6175C27.1363 9.74875 26.4075 8.59375 25.4313 7.6175L20.6462 2.81875C19.6846 1.86081 18.5321 1.11593 17.2638 0.6325V9.625C17.2638 10.3813 17.8825 11 18.6388 11H18.625ZM14.6238 20.9688H13.4688V25.7812H14.6238C15.2838 25.7812 15.8475 25.245 15.8475 24.5987V22.1513C15.8475 21.505 15.2838 20.9688 14.6238 20.9688ZM28.25 14.4237V26.125C28.25 29.92 25.17 33 21.375 33H7.625C3.83 33 0.75 29.92 0.75 26.125V6.875C0.75 3.08 3.83 0 7.625 0H13.8263C14.0463 0 14.2662 0.01375 14.5 0.0275V9.625C14.5 11.8938 16.3562 13.75 18.625 13.75H28.2225C28.2362 13.97 28.25 14.19 28.25 14.4237ZM10.6912 22.1513C10.6912 20.5563 9.37125 19.25 7.74875 19.25H6.25C5.49375 19.25 4.875 19.8687 4.875 20.625V26.73C4.875 27.2113 5.26 27.5825 5.7275 27.5825C6.195 27.5825 6.58 27.1975 6.58 26.73V25.0525H7.735C9.3575 25.0525 10.6775 23.7463 10.6775 22.1513H10.6912ZM17.5662 22.1513C17.5662 20.5563 16.2463 19.25 14.6238 19.25H13.125C12.3687 19.25 11.75 19.8687 11.75 20.625V26.73C11.75 27.2113 12.135 27.5 12.6025 27.5H14.61C16.2325 27.5 17.5525 26.1937 17.5525 24.5987V22.1513H17.5662ZM24.1525 20.1163C24.1525 19.635 23.7675 19.2638 23.3 19.2638H20.1238C19.6425 19.2638 19.2712 19.6488 19.2712 20.1163V26.73C19.2712 27.2113 19.6562 27.5825 20.1238 27.5825C20.5912 27.5825 20.9762 27.1975 20.9762 26.73V24.255H22.6813C23.1625 24.255 23.5337 23.87 23.5337 23.4025C23.5337 22.935 23.1488 22.55 22.6813 22.55H20.9762V20.9825H23.3C23.7812 20.9825 24.1525 20.5975 24.1525 20.13V20.1163Z"
            fill="white" />
    </symbol>

</svg>